# xmcd
#
# Track frame offsets: 
#        150
#        13062
#        27693
#        42666
#        55785
#        71055
#        84327
#        95628
#        107082
#        120534
#
# Disc length: 1757 seconds
#
# Revision: 0
# Processed by: cddbd v1.5.2PL0 Copyright (c) Steve Scherf et al.
# Submitted via: ExactAudioCopy v1.3
#
DISCID=8806db0a
DTITLE=Marty Robbins - Don't Let Me Touch You
DYEAR=1977
DGENRE=Country
TTITLE0=Don't Let Me Touch You
TTITLE1=There's No More You And Me
TTITLE2=To Get To You
TTITLE3=The Way I Loved You Best
TTITLE4=Try a Little Tenderness
TTITLE5=Return To Me
TTITLE6=Harbor Lights
TTITLE7=More That Anything I Miss You
TTITLE8=A Tree In The Meadow
TTITLE9=Tomorrow, Tomorrow, Tomorrow
EXTD=
EXTT0=
EXTT1=
EXTT2=
EXTT3=
EXTT4=
EXTT5=
EXTT6=
EXTT7=
EXTT8=
EXTT9=
PLAYORDER=
